<svg aria-roledescription="er" role="graphics-document document" viewBox="0 -62 875.280517578125 965" style="max-width: 875.281px; background-color: white;" xmlns:xlink="http://www.w3.org/1999/xlink" xmlns="http://www.w3.org/2000/svg" width="100%" id="my-svg"><style>#my-svg{font-family:"trebuchet ms",verdana,arial,sans-serif;font-size:16px;fill:#333;}#my-svg .error-icon{fill:#552222;}#my-svg .error-text{fill:#552222;stroke:#552222;}#my-svg .edge-thickness-normal{stroke-width:1px;}#my-svg .edge-thickness-thick{stroke-width:3.5px;}#my-svg .edge-pattern-solid{stroke-dasharray:0;}#my-svg .edge-thickness-invisible{stroke-width:0;fill:none;}#my-svg .edge-pattern-dashed{stroke-dasharray:3;}#my-svg .edge-pattern-dotted{stroke-dasharray:2;}#my-svg .marker{fill:#333333;stroke:#333333;}#my-svg .marker.cross{stroke:#333333;}#my-svg svg{font-family:"trebuchet ms",verdana,arial,sans-serif;font-size:16px;}#my-svg p{margin:0;}#my-svg .entityBox{fill:#ECECFF;stroke:#9370DB;}#my-svg .attributeBoxOdd{fill:#ffffff;stroke:#9370DB;}#my-svg .attributeBoxEven{fill:#f2f2f2;stroke:#9370DB;}#my-svg .relationshipLabelBox{fill:hsl(80, 100%, 96.2745098039%);opacity:0.7;background-color:hsl(80, 100%, 96.2745098039%);}#my-svg .relationshipLabelBox rect{opacity:0.5;}#my-svg .relationshipLine{stroke:#333333;}#my-svg .entityTitleText{text-anchor:middle;font-size:18px;fill:#333;}#my-svg #MD_PARENT_START{fill:#f5f5f5!important;stroke:#333333!important;stroke-width:1;}#my-svg #MD_PARENT_END{fill:#f5f5f5!important;stroke:#333333!important;stroke-width:1;}#my-svg :root{--mermaid-font-family:"trebuchet ms",verdana,arial,sans-serif;}</style><g/><defs><marker orient="auto" markerHeight="240" markerWidth="190" refY="7" refX="0" id="MD_PARENT_START"><path d="M 18,7 L9,13 L1,7 L9,1 Z"/></marker></defs><defs><marker orient="auto" markerHeight="28" markerWidth="20" refY="7" refX="19" id="MD_PARENT_END"><path d="M 18,7 L9,13 L1,7 L9,1 Z"/></marker></defs><defs><marker orient="auto" markerHeight="18" markerWidth="18" refY="9" refX="0" id="ONLY_ONE_START"><path d="M9,0 L9,18 M15,0 L15,18" fill="none" stroke="gray"/></marker></defs><defs><marker orient="auto" markerHeight="18" markerWidth="18" refY="9" refX="18" id="ONLY_ONE_END"><path d="M3,0 L3,18 M9,0 L9,18" fill="none" stroke="gray"/></marker></defs><defs><marker orient="auto" markerHeight="18" markerWidth="30" refY="9" refX="0" id="ZERO_OR_ONE_START"><circle r="6" cy="9" cx="21" fill="white" stroke="gray"/><path d="M9,0 L9,18" fill="none" stroke="gray"/></marker></defs><defs><marker orient="auto" markerHeight="18" markerWidth="30" refY="9" refX="30" id="ZERO_OR_ONE_END"><circle r="6" cy="9" cx="9" fill="white" stroke="gray"/><path d="M21,0 L21,18" fill="none" stroke="gray"/></marker></defs><defs><marker orient="auto" markerHeight="36" markerWidth="45" refY="18" refX="18" id="ONE_OR_MORE_START"><path d="M0,18 Q 18,0 36,18 Q 18,36 0,18 M42,9 L42,27" fill="none" stroke="gray"/></marker></defs><defs><marker orient="auto" markerHeight="36" markerWidth="45" refY="18" refX="27" id="ONE_OR_MORE_END"><path d="M3,9 L3,27 M9,18 Q27,0 45,18 Q27,36 9,18" fill="none" stroke="gray"/></marker></defs><defs><marker orient="auto" markerHeight="36" markerWidth="57" refY="18" refX="18" id="ZERO_OR_MORE_START"><circle r="6" cy="18" cx="48" fill="white" stroke="gray"/><path d="M0,18 Q18,0 36,18 Q18,36 0,18" fill="none" stroke="gray"/></marker></defs><defs><marker orient="auto" markerHeight="36" markerWidth="57" refY="18" refX="39" id="ZERO_OR_MORE_END"><circle r="6" cy="18" cx="9" fill="white" stroke="gray"/><path d="M21,18 Q39,0 57,18 Q39,36 21,18" fill="none" stroke="gray"/></marker></defs><path style="stroke: gray; fill: none;" marker-start="url(#ONLY_ONE_START)" marker-end="url(#ZERO_OR_MORE_END)" d="M314.842,374.716L383.444,393.43C452.045,412.144,589.248,449.572,662.598,476.619C735.947,503.667,745.444,520.333,750.192,528.667L754.94,537" class="er relationshipLine"/><path style="stroke: gray; fill: none;" marker-start="url(#ONLY_ONE_START)" marker-end="url(#ZERO_OR_ONE_END)" d="M167.421,437L167.421,445.333C167.421,453.667,167.421,470.333,196.948,492.303C226.474,514.273,285.527,541.546,315.054,555.183L344.58,568.82" class="er relationshipLine"/><path style="stroke: gray; fill: none;" marker-start="url(#ONLY_ONE_START)" marker-end="url(#ONLY_ONE_END)" d="M486.397,93.286L433.234,108.072C380.072,122.857,273.746,152.429,220.584,175.548C167.421,198.667,167.421,215.333,167.421,223.667L167.421,232" class="er relationshipLine"/><path style="stroke: gray; fill: none;" marker-start="url(#ONLY_ONE_START)" marker-end="url(#ZERO_OR_MORE_END)" d="M589.705,132L595.829,140.333C601.954,148.667,614.203,165.333,620.327,199.083C626.451,232.833,626.451,283.667,626.451,334.5C626.451,385.333,626.451,436.167,596.925,475.22C567.398,514.273,508.345,541.546,478.819,555.183L449.292,568.82" class="er relationshipLine"/><path style="stroke: gray; fill: none;" marker-start="url(#ONLY_ONE_START)" marker-end="url(#ZERO_OR_MORE_END)" d="M610.701,98.852L648.392,112.71C686.083,126.568,761.465,154.284,799.156,193.559C836.846,232.833,836.846,283.667,836.846,334.5C836.846,385.333,836.846,436.167,832.916,469.917C828.985,503.667,821.123,520.333,817.192,528.667L813.261,537" class="er relationshipLine"/><path style="stroke: gray; fill: none;" marker-start="url(#ONLY_ONE_START)" marker-end="url(#ZERO_OR_MORE_END)" d="M507.393,132L501.269,140.333C495.144,148.667,482.895,165.333,476.771,192.833C470.647,220.333,470.647,258.667,470.647,277.833L470.647,297" class="er relationshipLine"/><path style="stroke: gray; fill: none;" marker-start="url(#ONLY_ONE_START)" marker-end="url(#ONE_OR_MORE_END)" d="M396.936,649L396.936,657.333C396.936,665.667,396.936,682.333,396.936,699C396.936,715.667,396.936,732.333,396.936,740.667L396.936,749" class="er relationshipLine"/><g transform="translate(20,232 )" id="entity-User-818c511a-4a32-5484-ba70-875d765a9175"><rect height="205" width="294.84197998046875" y="0" x="0" class="er entityBox"/><text style="dominant-baseline: middle; text-anchor: middle; font-size: 12px;" transform="translate(147.42098999023438,12)" y="0" x="0" id="text-entity-User-818c511a-4a32-5484-ba70-875d765a9175" class="er entityLabel">User</text><rect height="22" width="60.25164794921875" y="24" x="0" class="er attributeBoxOdd"/><text style="dominant-baseline: middle; font-size: 10.2px;" transform="translate(5,35)" y="0" x="0" id="text-entity-User-818c511a-4a32-5484-ba70-875d765a9175-attr-1-type" class="er entityLabel">INT</text><rect height="22" width="65.015625" y="24" x="60.25164794921875" class="er attributeBoxOdd"/><text style="dominant-baseline: middle; font-size: 10.2px;" transform="translate(65.25164794921875,35)" y="0" x="0" id="text-entity-User-818c511a-4a32-5484-ba70-875d765a9175-attr-1-name" class="er entityLabel">ID</text><rect height="22" width="22.60595703125" y="24" x="125.26727294921875" class="er attributeBoxOdd"/><text style="dominant-baseline: middle; font-size: 10.2px;" transform="translate(130.26727294921875,35)" y="0" x="0" id="text-entity-User-818c511a-4a32-5484-ba70-875d765a9175-attr-1-key" class="er entityLabel">PK</text><rect height="22" width="146.96875" y="24" x="147.87322998046875" class="er attributeBoxOdd"/><text style="dominant-baseline: middle; font-size: 10.2px;" transform="translate(152.87322998046875,35)" y="0" x="0" id="text-entity-User-818c511a-4a32-5484-ba70-875d765a9175-attr-1-comment" class="er entityLabel"/><rect height="23" width="60.25164794921875" y="46" x="0" class="er attributeBoxEven"/><text style="dominant-baseline: middle; font-size: 10.2px;" transform="translate(5,57.5)" y="0" x="0" id="text-entity-User-818c511a-4a32-5484-ba70-875d765a9175-attr-2-type" class="er entityLabel">String(50)</text><rect height="23" width="65.015625" y="46" x="60.25164794921875" class="er attributeBoxEven"/><text style="dominant-baseline: middle; font-size: 10.2px;" transform="translate(65.25164794921875,57.5)" y="0" x="0" id="text-entity-User-818c511a-4a32-5484-ba70-875d765a9175-attr-2-name" class="er entityLabel">name</text><rect height="23" width="22.60595703125" y="46" x="125.26727294921875" class="er attributeBoxEven"/><text style="dominant-baseline: middle; font-size: 10.2px;" transform="translate(130.26727294921875,57.5)" y="0" x="0" id="text-entity-User-818c511a-4a32-5484-ba70-875d765a9175-attr-2-key" class="er entityLabel"/><rect height="23" width="146.96875" y="46" x="147.87322998046875" class="er attributeBoxEven"/><text style="dominant-baseline: middle; font-size: 10.2px;" transform="translate(152.87322998046875,57.5)" y="0" x="0" id="text-entity-User-818c511a-4a32-5484-ba70-875d765a9175-attr-2-comment" class="er entityLabel"/><rect height="23" width="60.25164794921875" y="69" x="0" class="er attributeBoxOdd"/><text style="dominant-baseline: middle; font-size: 10.2px;" transform="translate(5,80.5)" y="0" x="0" id="text-entity-User-818c511a-4a32-5484-ba70-875d765a9175-attr-3-type" class="er entityLabel">String(50)</text><rect height="23" width="65.015625" y="69" x="60.25164794921875" class="er attributeBoxOdd"/><text style="dominant-baseline: middle; font-size: 10.2px;" transform="translate(65.25164794921875,80.5)" y="0" x="0" id="text-entity-User-818c511a-4a32-5484-ba70-875d765a9175-attr-3-name" class="er entityLabel">surname</text><rect height="23" width="22.60595703125" y="69" x="125.26727294921875" class="er attributeBoxOdd"/><text style="dominant-baseline: middle; font-size: 10.2px;" transform="translate(130.26727294921875,80.5)" y="0" x="0" id="text-entity-User-818c511a-4a32-5484-ba70-875d765a9175-attr-3-key" class="er entityLabel"/><rect height="23" width="146.96875" y="69" x="147.87322998046875" class="er attributeBoxOdd"/><text style="dominant-baseline: middle; font-size: 10.2px;" transform="translate(152.87322998046875,80.5)" y="0" x="0" id="text-entity-User-818c511a-4a32-5484-ba70-875d765a9175-attr-3-comment" class="er entityLabel"/><rect height="23" width="60.25164794921875" y="92" x="0" class="er attributeBoxEven"/><text style="dominant-baseline: middle; font-size: 10.2px;" transform="translate(5,103.5)" y="0" x="0" id="text-entity-User-818c511a-4a32-5484-ba70-875d765a9175-attr-4-type" class="er entityLabel">String(50)</text><rect height="23" width="65.015625" y="92" x="60.25164794921875" class="er attributeBoxEven"/><text style="dominant-baseline: middle; font-size: 10.2px;" transform="translate(65.25164794921875,103.5)" y="0" x="0" id="text-entity-User-818c511a-4a32-5484-ba70-875d765a9175-attr-4-name" class="er entityLabel">lastname</text><rect height="23" width="22.60595703125" y="92" x="125.26727294921875" class="er attributeBoxEven"/><text style="dominant-baseline: middle; font-size: 10.2px;" transform="translate(130.26727294921875,103.5)" y="0" x="0" id="text-entity-User-818c511a-4a32-5484-ba70-875d765a9175-attr-4-key" class="er entityLabel"/><rect height="23" width="146.96875" y="92" x="147.87322998046875" class="er attributeBoxEven"/><text style="dominant-baseline: middle; font-size: 10.2px;" transform="translate(152.87322998046875,103.5)" y="0" x="0" id="text-entity-User-818c511a-4a32-5484-ba70-875d765a9175-attr-4-comment" class="er entityLabel"/><rect height="23" width="60.25164794921875" y="115" x="0" class="er attributeBoxOdd"/><text style="dominant-baseline: middle; font-size: 10.2px;" transform="translate(5,126.5)" y="0" x="0" id="text-entity-User-818c511a-4a32-5484-ba70-875d765a9175-attr-5-type" class="er entityLabel">String(128)</text><rect height="23" width="65.015625" y="115" x="60.25164794921875" class="er attributeBoxOdd"/><text style="dominant-baseline: middle; font-size: 10.2px;" transform="translate(65.25164794921875,126.5)" y="0" x="0" id="text-entity-User-818c511a-4a32-5484-ba70-875d765a9175-attr-5-name" class="er entityLabel">email</text><rect height="23" width="22.60595703125" y="115" x="125.26727294921875" class="er attributeBoxOdd"/><text style="dominant-baseline: middle; font-size: 10.2px;" transform="translate(130.26727294921875,126.5)" y="0" x="0" id="text-entity-User-818c511a-4a32-5484-ba70-875d765a9175-attr-5-key" class="er entityLabel"/><rect height="23" width="146.96875" y="115" x="147.87322998046875" class="er attributeBoxOdd"/><text style="dominant-baseline: middle; font-size: 10.2px;" transform="translate(152.87322998046875,126.5)" y="0" x="0" id="text-entity-User-818c511a-4a32-5484-ba70-875d765a9175-attr-5-comment" class="er entityLabel"/><rect height="23" width="60.25164794921875" y="138" x="0" class="er attributeBoxEven"/><text style="dominant-baseline: middle; font-size: 10.2px;" transform="translate(5,149.5)" y="0" x="0" id="text-entity-User-818c511a-4a32-5484-ba70-875d765a9175-attr-6-type" class="er entityLabel">String(255)</text><rect height="23" width="65.015625" y="138" x="60.25164794921875" class="er attributeBoxEven"/><text style="dominant-baseline: middle; font-size: 10.2px;" transform="translate(65.25164794921875,149.5)" y="0" x="0" id="text-entity-User-818c511a-4a32-5484-ba70-875d765a9175-attr-6-name" class="er entityLabel">passwd</text><rect height="23" width="22.60595703125" y="138" x="125.26727294921875" class="er attributeBoxEven"/><text style="dominant-baseline: middle; font-size: 10.2px;" transform="translate(130.26727294921875,149.5)" y="0" x="0" id="text-entity-User-818c511a-4a32-5484-ba70-875d765a9175-attr-6-key" class="er entityLabel">UK</text><rect height="23" width="146.96875" y="138" x="147.87322998046875" class="er attributeBoxEven"/><text style="dominant-baseline: middle; font-size: 10.2px;" transform="translate(152.87322998046875,149.5)" y="0" x="0" id="text-entity-User-818c511a-4a32-5484-ba70-875d765a9175-attr-6-comment" class="er entityLabel">Must follow passwd guidelines</text><rect height="22" width="60.25164794921875" y="161" x="0" class="er attributeBoxOdd"/><text style="dominant-baseline: middle; font-size: 10.2px;" transform="translate(5,172)" y="0" x="0" id="text-entity-User-818c511a-4a32-5484-ba70-875d765a9175-attr-7-type" class="er entityLabel">bool</text><rect height="22" width="65.015625" y="161" x="60.25164794921875" class="er attributeBoxOdd"/><text style="dominant-baseline: middle; font-size: 10.2px;" transform="translate(65.25164794921875,172)" y="0" x="0" id="text-entity-User-818c511a-4a32-5484-ba70-875d765a9175-attr-7-name" class="er entityLabel">active</text><rect height="22" width="22.60595703125" y="161" x="125.26727294921875" class="er attributeBoxOdd"/><text style="dominant-baseline: middle; font-size: 10.2px;" transform="translate(130.26727294921875,172)" y="0" x="0" id="text-entity-User-818c511a-4a32-5484-ba70-875d765a9175-attr-7-key" class="er entityLabel"/><rect height="22" width="146.96875" y="161" x="147.87322998046875" class="er attributeBoxOdd"/><text style="dominant-baseline: middle; font-size: 10.2px;" transform="translate(152.87322998046875,172)" y="0" x="0" id="text-entity-User-818c511a-4a32-5484-ba70-875d765a9175-attr-7-comment" class="er entityLabel"/><rect height="22" width="60.25164794921875" y="183" x="0" class="er attributeBoxEven"/><text style="dominant-baseline: middle; font-size: 10.2px;" transform="translate(5,194)" y="0" x="0" id="text-entity-User-818c511a-4a32-5484-ba70-875d765a9175-attr-8-type" class="er entityLabel">INT</text><rect height="22" width="65.015625" y="183" x="60.25164794921875" class="er attributeBoxEven"/><text style="dominant-baseline: middle; font-size: 10.2px;" transform="translate(65.25164794921875,194)" y="0" x="0" id="text-entity-User-818c511a-4a32-5484-ba70-875d765a9175-attr-8-name" class="er entityLabel">premium_ID</text><rect height="22" width="22.60595703125" y="183" x="125.26727294921875" class="er attributeBoxEven"/><text style="dominant-baseline: middle; font-size: 10.2px;" transform="translate(130.26727294921875,194)" y="0" x="0" id="text-entity-User-818c511a-4a32-5484-ba70-875d765a9175-attr-8-key" class="er entityLabel">FK</text><rect height="22" width="146.96875" y="183" x="147.87322998046875" class="er attributeBoxEven"/><text style="dominant-baseline: middle; font-size: 10.2px;" transform="translate(152.87322998046875,194)" y="0" x="0" id="text-entity-User-818c511a-4a32-5484-ba70-875d765a9175-attr-8-comment" class="er entityLabel"/></g><g transform="translate(486.3967590332031,20 )" id="entity-Premium-d5c3b57c-ed0f-5b93-aa19-880d6377a259"><rect height="112" width="124.30450439453125" y="0" x="0" class="er entityBox"/><text style="dominant-baseline: middle; text-anchor: middle; font-size: 12px;" transform="translate(62.152252197265625,12)" y="0" x="0" id="text-entity-Premium-d5c3b57c-ed0f-5b93-aa19-880d6377a259" class="er entityLabel">Premium</text><rect height="22" width="31.639404296875" y="24" x="0" class="er attributeBoxOdd"/><text style="dominant-baseline: middle; font-size: 10.2px;" transform="translate(5,35)" y="0" x="0" id="text-entity-Premium-d5c3b57c-ed0f-5b93-aa19-880d6377a259-attr-1-type" class="er entityLabel">INT</text><rect height="22" width="70.984375" y="24" x="31.639404296875" class="er attributeBoxOdd"/><text style="dominant-baseline: middle; font-size: 10.2px;" transform="translate(36.639404296875,35)" y="0" x="0" id="text-entity-Premium-d5c3b57c-ed0f-5b93-aa19-880d6377a259-attr-1-name" class="er entityLabel">ID</text><rect height="22" width="21.68072509765625" y="24" x="102.623779296875" class="er attributeBoxOdd"/><text style="dominant-baseline: middle; font-size: 10.2px;" transform="translate(107.623779296875,35)" y="0" x="0" id="text-entity-Premium-d5c3b57c-ed0f-5b93-aa19-880d6377a259-attr-1-key" class="er entityLabel">PK</text><rect height="22" width="31.639404296875" y="46" x="0" class="er attributeBoxEven"/><text style="dominant-baseline: middle; font-size: 10.2px;" transform="translate(5,57)" y="0" x="0" id="text-entity-Premium-d5c3b57c-ed0f-5b93-aa19-880d6377a259-attr-2-type" class="er entityLabel">bool</text><rect height="22" width="70.984375" y="46" x="31.639404296875" class="er attributeBoxEven"/><text style="dominant-baseline: middle; font-size: 10.2px;" transform="translate(36.639404296875,57)" y="0" x="0" id="text-entity-Premium-d5c3b57c-ed0f-5b93-aa19-880d6377a259-attr-2-name" class="er entityLabel">premium</text><rect height="22" width="21.68072509765625" y="46" x="102.623779296875" class="er attributeBoxEven"/><text style="dominant-baseline: middle; font-size: 10.2px;" transform="translate(107.623779296875,57)" y="0" x="0" id="text-entity-Premium-d5c3b57c-ed0f-5b93-aa19-880d6377a259-attr-2-key" class="er entityLabel"/><rect height="22" width="31.639404296875" y="68" x="0" class="er attributeBoxOdd"/><text style="dominant-baseline: middle; font-size: 10.2px;" transform="translate(5,79)" y="0" x="0" id="text-entity-Premium-d5c3b57c-ed0f-5b93-aa19-880d6377a259-attr-3-type" class="er entityLabel">Date</text><rect height="22" width="70.984375" y="68" x="31.639404296875" class="er attributeBoxOdd"/><text style="dominant-baseline: middle; font-size: 10.2px;" transform="translate(36.639404296875,79)" y="0" x="0" id="text-entity-Premium-d5c3b57c-ed0f-5b93-aa19-880d6377a259-attr-3-name" class="er entityLabel">suscriptions[]</text><rect height="22" width="21.68072509765625" y="68" x="102.623779296875" class="er attributeBoxOdd"/><text style="dominant-baseline: middle; font-size: 10.2px;" transform="translate(107.623779296875,79)" y="0" x="0" id="text-entity-Premium-d5c3b57c-ed0f-5b93-aa19-880d6377a259-attr-3-key" class="er entityLabel"/><rect height="22" width="31.639404296875" y="90" x="0" class="er attributeBoxEven"/><text style="dominant-baseline: middle; font-size: 10.2px;" transform="translate(5,101)" y="0" x="0" id="text-entity-Premium-d5c3b57c-ed0f-5b93-aa19-880d6377a259-attr-4-type" class="er entityLabel">Date</text><rect height="22" width="70.984375" y="90" x="31.639404296875" class="er attributeBoxEven"/><text style="dominant-baseline: middle; font-size: 10.2px;" transform="translate(36.639404296875,101)" y="0" x="0" id="text-entity-Premium-d5c3b57c-ed0f-5b93-aa19-880d6377a259-attr-4-name" class="er entityLabel">due</text><rect height="22" width="21.68072509765625" y="90" x="102.623779296875" class="er attributeBoxEven"/><text style="dominant-baseline: middle; font-size: 10.2px;" transform="translate(107.623779296875,101)" y="0" x="0" id="text-entity-Premium-d5c3b57c-ed0f-5b93-aa19-880d6377a259-attr-4-key" class="er entityLabel"/></g><g transform="translate(344.58018493652344,537 )" id="entity-Log-472337e0-2137-5e38-bbc7-43e8b58c0118"><rect height="112" width="104.71197509765625" y="0" x="0" class="er entityBox"/><text style="dominant-baseline: middle; text-anchor: middle; font-size: 12px;" transform="translate(52.355987548828125,12)" y="0" x="0" id="text-entity-Log-472337e0-2137-5e38-bbc7-43e8b58c0118" class="er entityLabel">Log</text><rect height="22" width="32.734375" y="24" x="0" class="er attributeBoxOdd"/><text style="dominant-baseline: middle; font-size: 10.2px;" transform="translate(5,35)" y="0" x="0" id="text-entity-Log-472337e0-2137-5e38-bbc7-43e8b58c0118-attr-1-type" class="er entityLabel">INT</text><rect height="22" width="50.296875" y="24" x="32.734375" class="er attributeBoxOdd"/><text style="dominant-baseline: middle; font-size: 10.2px;" transform="translate(37.734375,35)" y="0" x="0" id="text-entity-Log-472337e0-2137-5e38-bbc7-43e8b58c0118-attr-1-name" class="er entityLabel">ID</text><rect height="22" width="21.68072509765625" y="24" x="83.03125" class="er attributeBoxOdd"/><text style="dominant-baseline: middle; font-size: 10.2px;" transform="translate(88.03125,35)" y="0" x="0" id="text-entity-Log-472337e0-2137-5e38-bbc7-43e8b58c0118-attr-1-key" class="er entityLabel">PK</text><rect height="22" width="32.734375" y="46" x="0" class="er attributeBoxEven"/><text style="dominant-baseline: middle; font-size: 10.2px;" transform="translate(5,57)" y="0" x="0" id="text-entity-Log-472337e0-2137-5e38-bbc7-43e8b58c0118-attr-2-type" class="er entityLabel">INT</text><rect height="22" width="50.296875" y="46" x="32.734375" class="er attributeBoxEven"/><text style="dominant-baseline: middle; font-size: 10.2px;" transform="translate(37.734375,57)" y="0" x="0" id="text-entity-Log-472337e0-2137-5e38-bbc7-43e8b58c0118-attr-2-name" class="er entityLabel">user_ID</text><rect height="22" width="21.68072509765625" y="46" x="83.03125" class="er attributeBoxEven"/><text style="dominant-baseline: middle; font-size: 10.2px;" transform="translate(88.03125,57)" y="0" x="0" id="text-entity-Log-472337e0-2137-5e38-bbc7-43e8b58c0118-attr-2-key" class="er entityLabel">FK</text><rect height="22" width="32.734375" y="68" x="0" class="er attributeBoxOdd"/><text style="dominant-baseline: middle; font-size: 10.2px;" transform="translate(5,79)" y="0" x="0" id="text-entity-Log-472337e0-2137-5e38-bbc7-43e8b58c0118-attr-3-type" class="er entityLabel">INT</text><rect height="22" width="50.296875" y="68" x="32.734375" class="er attributeBoxOdd"/><text style="dominant-baseline: middle; font-size: 10.2px;" transform="translate(37.734375,79)" y="0" x="0" id="text-entity-Log-472337e0-2137-5e38-bbc7-43e8b58c0118-attr-3-name" class="er entityLabel">car_ID</text><rect height="22" width="21.68072509765625" y="68" x="83.03125" class="er attributeBoxOdd"/><text style="dominant-baseline: middle; font-size: 10.2px;" transform="translate(88.03125,79)" y="0" x="0" id="text-entity-Log-472337e0-2137-5e38-bbc7-43e8b58c0118-attr-3-key" class="er entityLabel">FK</text><rect height="22" width="32.734375" y="90" x="0" class="er attributeBoxEven"/><text style="dominant-baseline: middle; font-size: 10.2px;" transform="translate(5,101)" y="0" x="0" id="text-entity-Log-472337e0-2137-5e38-bbc7-43e8b58c0118-attr-4-type" class="er entityLabel">INT[]</text><rect height="22" width="50.296875" y="90" x="32.734375" class="er attributeBoxEven"/><text style="dominant-baseline: middle; font-size: 10.2px;" transform="translate(37.734375,101)" y="0" x="0" id="text-entity-Log-472337e0-2137-5e38-bbc7-43e8b58c0118-attr-4-name" class="er entityLabel">codes_ID</text><rect height="22" width="21.68072509765625" y="90" x="83.03125" class="er attributeBoxEven"/><text style="dominant-baseline: middle; font-size: 10.2px;" transform="translate(88.03125,101)" y="0" x="0" id="text-entity-Log-472337e0-2137-5e38-bbc7-43e8b58c0118-attr-4-key" class="er entityLabel">FK</text></g><g transform="translate(718.4122924804688,537 )" id="entity-Car-ba07cc06-e292-5c3f-b020-9c22cc6eb631"><rect height="112" width="136.86822509765625" y="0" x="0" class="er entityBox"/><text style="dominant-baseline: middle; text-anchor: middle; font-size: 12px;" transform="translate(68.43411254882812,12)" y="0" x="0" id="text-entity-Car-ba07cc06-e292-5c3f-b020-9c22cc6eb631" class="er entityLabel">Car</text><rect height="22" width="36.484375" y="24" x="0" class="er attributeBoxOdd"/><text style="dominant-baseline: middle; font-size: 10.2px;" transform="translate(5,35)" y="0" x="0" id="text-entity-Car-ba07cc06-e292-5c3f-b020-9c22cc6eb631-attr-1-type" class="er entityLabel">INT</text><rect height="22" width="78.703125" y="24" x="36.484375" class="er attributeBoxOdd"/><text style="dominant-baseline: middle; font-size: 10.2px;" transform="translate(41.484375,35)" y="0" x="0" id="text-entity-Car-ba07cc06-e292-5c3f-b020-9c22cc6eb631-attr-1-name" class="er entityLabel">ID</text><rect height="22" width="21.68072509765625" y="24" x="115.1875" class="er attributeBoxOdd"/><text style="dominant-baseline: middle; font-size: 10.2px;" transform="translate(120.1875,35)" y="0" x="0" id="text-entity-Car-ba07cc06-e292-5c3f-b020-9c22cc6eb631-attr-1-key" class="er entityLabel">PK</text><rect height="22" width="36.484375" y="46" x="0" class="er attributeBoxEven"/><text style="dominant-baseline: middle; font-size: 10.2px;" transform="translate(5,57)" y="0" x="0" id="text-entity-Car-ba07cc06-e292-5c3f-b020-9c22cc6eb631-attr-2-type" class="er entityLabel">String</text><rect height="22" width="78.703125" y="46" x="36.484375" class="er attributeBoxEven"/><text style="dominant-baseline: middle; font-size: 10.2px;" transform="translate(41.484375,57)" y="0" x="0" id="text-entity-Car-ba07cc06-e292-5c3f-b020-9c22cc6eb631-attr-2-name" class="er entityLabel">model</text><rect height="22" width="21.68072509765625" y="46" x="115.1875" class="er attributeBoxEven"/><text style="dominant-baseline: middle; font-size: 10.2px;" transform="translate(120.1875,57)" y="0" x="0" id="text-entity-Car-ba07cc06-e292-5c3f-b020-9c22cc6eb631-attr-2-key" class="er entityLabel"/><rect height="22" width="36.484375" y="68" x="0" class="er attributeBoxOdd"/><text style="dominant-baseline: middle; font-size: 10.2px;" transform="translate(5,79)" y="0" x="0" id="text-entity-Car-ba07cc06-e292-5c3f-b020-9c22cc6eb631-attr-3-type" class="er entityLabel">String</text><rect height="22" width="78.703125" y="68" x="36.484375" class="er attributeBoxOdd"/><text style="dominant-baseline: middle; font-size: 10.2px;" transform="translate(41.484375,79)" y="0" x="0" id="text-entity-Car-ba07cc06-e292-5c3f-b020-9c22cc6eb631-attr-3-name" class="er entityLabel">year</text><rect height="22" width="21.68072509765625" y="68" x="115.1875" class="er attributeBoxOdd"/><text style="dominant-baseline: middle; font-size: 10.2px;" transform="translate(120.1875,79)" y="0" x="0" id="text-entity-Car-ba07cc06-e292-5c3f-b020-9c22cc6eb631-attr-3-key" class="er entityLabel"/><rect height="22" width="36.484375" y="90" x="0" class="er attributeBoxEven"/><text style="dominant-baseline: middle; font-size: 10.2px;" transform="translate(5,101)" y="0" x="0" id="text-entity-Car-ba07cc06-e292-5c3f-b020-9c22cc6eb631-attr-4-type" class="er entityLabel">String</text><rect height="22" width="78.703125" y="90" x="36.484375" class="er attributeBoxEven"/><text style="dominant-baseline: middle; font-size: 10.2px;" transform="translate(41.484375,101)" y="0" x="0" id="text-entity-Car-ba07cc06-e292-5c3f-b020-9c22cc6eb631-attr-4-name" class="er entityLabel">documentation</text><rect height="22" width="21.68072509765625" y="90" x="115.1875" class="er attributeBoxEven"/><text style="dominant-baseline: middle; font-size: 10.2px;" transform="translate(120.1875,101)" y="0" x="0" id="text-entity-Car-ba07cc06-e292-5c3f-b020-9c22cc6eb631-attr-4-key" class="er entityLabel"/></g><g transform="translate(333.65049743652344,749 )" id="entity-ObdCode-fc6a0b5a-2840-58a0-a1dd-424f8a75c9ed"><rect height="134" width="126.57135009765625" y="0" x="0" class="er entityBox"/><text style="dominant-baseline: middle; text-anchor: middle; font-size: 12px;" transform="translate(63.285675048828125,12)" y="0" x="0" id="text-entity-ObdCode-fc6a0b5a-2840-58a0-a1dd-424f8a75c9ed" class="er entityLabel">ObdCode</text><rect height="22" width="43.96875" y="24" x="0" class="er attributeBoxOdd"/><text style="dominant-baseline: middle; font-size: 10.2px;" transform="translate(5,35)" y="0" x="0" id="text-entity-ObdCode-fc6a0b5a-2840-58a0-a1dd-424f8a75c9ed-attr-1-type" class="er entityLabel">INT</text><rect height="22" width="60.921875" y="24" x="43.96875" class="er attributeBoxOdd"/><text style="dominant-baseline: middle; font-size: 10.2px;" transform="translate(48.96875,35)" y="0" x="0" id="text-entity-ObdCode-fc6a0b5a-2840-58a0-a1dd-424f8a75c9ed-attr-1-name" class="er entityLabel">ID</text><rect height="22" width="21.68072509765625" y="24" x="104.890625" class="er attributeBoxOdd"/><text style="dominant-baseline: middle; font-size: 10.2px;" transform="translate(109.890625,35)" y="0" x="0" id="text-entity-ObdCode-fc6a0b5a-2840-58a0-a1dd-424f8a75c9ed-attr-1-key" class="er entityLabel">PK</text><rect height="22" width="43.96875" y="46" x="0" class="er attributeBoxEven"/><text style="dominant-baseline: middle; font-size: 10.2px;" transform="translate(5,57)" y="0" x="0" id="text-entity-ObdCode-fc6a0b5a-2840-58a0-a1dd-424f8a75c9ed-attr-2-type" class="er entityLabel">String</text><rect height="22" width="60.921875" y="46" x="43.96875" class="er attributeBoxEven"/><text style="dominant-baseline: middle; font-size: 10.2px;" transform="translate(48.96875,57)" y="0" x="0" id="text-entity-ObdCode-fc6a0b5a-2840-58a0-a1dd-424f8a75c9ed-attr-2-name" class="er entityLabel">category</text><rect height="22" width="21.68072509765625" y="46" x="104.890625" class="er attributeBoxEven"/><text style="dominant-baseline: middle; font-size: 10.2px;" transform="translate(109.890625,57)" y="0" x="0" id="text-entity-ObdCode-fc6a0b5a-2840-58a0-a1dd-424f8a75c9ed-attr-2-key" class="er entityLabel"/><rect height="22" width="43.96875" y="68" x="0" class="er attributeBoxOdd"/><text style="dominant-baseline: middle; font-size: 10.2px;" transform="translate(5,79)" y="0" x="0" id="text-entity-ObdCode-fc6a0b5a-2840-58a0-a1dd-424f8a75c9ed-attr-3-type" class="er entityLabel">String</text><rect height="22" width="60.921875" y="68" x="43.96875" class="er attributeBoxOdd"/><text style="dominant-baseline: middle; font-size: 10.2px;" transform="translate(48.96875,79)" y="0" x="0" id="text-entity-ObdCode-fc6a0b5a-2840-58a0-a1dd-424f8a75c9ed-attr-3-name" class="er entityLabel">code</text><rect height="22" width="21.68072509765625" y="68" x="104.890625" class="er attributeBoxOdd"/><text style="dominant-baseline: middle; font-size: 10.2px;" transform="translate(109.890625,79)" y="0" x="0" id="text-entity-ObdCode-fc6a0b5a-2840-58a0-a1dd-424f8a75c9ed-attr-3-key" class="er entityLabel"/><rect height="22" width="43.96875" y="90" x="0" class="er attributeBoxEven"/><text style="dominant-baseline: middle; font-size: 10.2px;" transform="translate(5,101)" y="0" x="0" id="text-entity-ObdCode-fc6a0b5a-2840-58a0-a1dd-424f8a75c9ed-attr-4-type" class="er entityLabel">String</text><rect height="22" width="60.921875" y="90" x="43.96875" class="er attributeBoxEven"/><text style="dominant-baseline: middle; font-size: 10.2px;" transform="translate(48.96875,101)" y="0" x="0" id="text-entity-ObdCode-fc6a0b5a-2840-58a0-a1dd-424f8a75c9ed-attr-4-name" class="er entityLabel">description</text><rect height="22" width="21.68072509765625" y="90" x="104.890625" class="er attributeBoxEven"/><text style="dominant-baseline: middle; font-size: 10.2px;" transform="translate(109.890625,101)" y="0" x="0" id="text-entity-ObdCode-fc6a0b5a-2840-58a0-a1dd-424f8a75c9ed-attr-4-key" class="er entityLabel"/><rect height="22" width="43.96875" y="112" x="0" class="er attributeBoxOdd"/><text style="dominant-baseline: middle; font-size: 10.2px;" transform="translate(5,123)" y="0" x="0" id="text-entity-ObdCode-fc6a0b5a-2840-58a0-a1dd-424f8a75c9ed-attr-5-type" class="er entityLabel">String[]</text><rect height="22" width="60.921875" y="112" x="43.96875" class="er attributeBoxOdd"/><text style="dominant-baseline: middle; font-size: 10.2px;" transform="translate(48.96875,123)" y="0" x="0" id="text-entity-ObdCode-fc6a0b5a-2840-58a0-a1dd-424f8a75c9ed-attr-5-name" class="er entityLabel">fixes</text><rect height="22" width="21.68072509765625" y="112" x="104.890625" class="er attributeBoxOdd"/><text style="dominant-baseline: middle; font-size: 10.2px;" transform="translate(109.890625,123)" y="0" x="0" id="text-entity-ObdCode-fc6a0b5a-2840-58a0-a1dd-424f8a75c9ed-attr-5-key" class="er entityLabel"/></g><g transform="translate(414.84197998046875,297 )" id="entity-Documentation-e92d8f87-a581-5147-a415-d117c988e25d"><rect height="75" width="111.609375" y="0" x="0" class="er entityBox"/><text style="dominant-baseline: middle; text-anchor: middle; font-size: 12px;" transform="translate(55.8046875,37.5)" y="0" x="0" id="text-entity-Documentation-e92d8f87-a581-5147-a415-d117c988e25d" class="er entityLabel">Documentation</text></g><rect height="14" width="24.578125" y="431.5418701171875" x="531.6737670898438" class="er relationshipLabelBox"/><text style="text-anchor: middle; dominant-baseline: middle; font-size: 12px;" y="438.5418701171875" x="543.9628295898438" id="rel1" class="er relationshipLabel">Scan</text><rect height="14" width="47.693359375" y="511.39068603515625" x="215.90902709960938" class="er relationshipLabelBox"/><text style="text-anchor: middle; dominant-baseline: middle; font-size: 12px;" y="518.3906860351562" x="239.75570678710938" id="rel2" class="er relationshipLabel">Can save</text><rect height="14" width="18.125" y="136.21766662597656" x="303.1132507324219" class="er relationshipLabelBox"/><text style="text-anchor: middle; dominant-baseline: middle; font-size: 12px;" y="143.21766662597656" x="312.1757507324219" id="rel3" class="er relationshipLabel">Is a</text><rect height="14" width="47.693359375" y="383.81561279296875" x="601.0679321289062" class="er relationshipLabelBox"/><text style="text-anchor: middle; dominant-baseline: middle; font-size: 12px;" y="390.81561279296875" x="624.9146118164062" id="rel4" class="er relationshipLabel">Can save</text><rect height="14" width="47.21875" y="249.47586059570312" x="807.8616333007812" class="er relationshipLabelBox"/><text style="text-anchor: middle; dominant-baseline: middle; font-size: 12px;" y="256.4758605957031" x="831.4710083007812" id="rel5" class="er relationshipLabel">Full scan</text><rect height="14" width="58.244140625" y="203.4750213623047" x="444.650146484375" class="er relationshipLabelBox"/><text style="text-anchor: middle; dominant-baseline: middle; font-size: 12px;" y="210.4750213623047" x="473.772216796875" id="rel6" class="er relationshipLabel">Can access</text><rect height="14" width="47.693359375" y="692" x="373.0893249511719" class="er relationshipLabelBox"/><text style="text-anchor: middle; dominant-baseline: middle; font-size: 12px;" y="699" x="396.9360046386719" id="rel7" class="er relationshipLabel">Can save</text><text class="entityTitleText" y="-25" x="437.6402587890625" text-anchor="middle">Entity Relationship Diagram OBD</text></svg>