<svg aria-roledescription="er" role="graphics-document document" viewBox="0 -62 1155.2320556640625 965" style="max-width: 1155.23px; background-color: white;" xmlns:xlink="http://www.w3.org/1999/xlink" xmlns="http://www.w3.org/2000/svg" width="100%" id="my-svg"><style>#my-svg{font-family:"trebuchet ms",verdana,arial,sans-serif;font-size:16px;fill:#333;}#my-svg .error-icon{fill:#552222;}#my-svg .error-text{fill:#552222;stroke:#552222;}#my-svg .edge-thickness-normal{stroke-width:1px;}#my-svg .edge-thickness-thick{stroke-width:3.5px;}#my-svg .edge-pattern-solid{stroke-dasharray:0;}#my-svg .edge-thickness-invisible{stroke-width:0;fill:none;}#my-svg .edge-pattern-dashed{stroke-dasharray:3;}#my-svg .edge-pattern-dotted{stroke-dasharray:2;}#my-svg .marker{fill:#333333;stroke:#333333;}#my-svg .marker.cross{stroke:#333333;}#my-svg svg{font-family:"trebuchet ms",verdana,arial,sans-serif;font-size:16px;}#my-svg p{margin:0;}#my-svg .entityBox{fill:#ECECFF;stroke:#9370DB;}#my-svg .attributeBoxOdd{fill:#ffffff;stroke:#9370DB;}#my-svg .attributeBoxEven{fill:#f2f2f2;stroke:#9370DB;}#my-svg .relationshipLabelBox{fill:hsl(80, 100%, 96.2745098039%);opacity:0.7;background-color:hsl(80, 100%, 96.2745098039%);}#my-svg .relationshipLabelBox rect{opacity:0.5;}#my-svg .relationshipLine{stroke:#333333;}#my-svg .entityTitleText{text-anchor:middle;font-size:18px;fill:#333;}#my-svg #MD_PARENT_START{fill:#f5f5f5!important;stroke:#333333!important;stroke-width:1;}#my-svg #MD_PARENT_END{fill:#f5f5f5!important;stroke:#333333!important;stroke-width:1;}#my-svg :root{--mermaid-font-family:"trebuchet ms",verdana,arial,sans-serif;}</style><g/><defs><marker orient="auto" markerHeight="240" markerWidth="190" refY="7" refX="0" id="MD_PARENT_START"><path d="M 18,7 L9,13 L1,7 L9,1 Z"/></marker></defs><defs><marker orient="auto" markerHeight="28" markerWidth="20" refY="7" refX="19" id="MD_PARENT_END"><path d="M 18,7 L9,13 L1,7 L9,1 Z"/></marker></defs><defs><marker orient="auto" markerHeight="18" markerWidth="18" refY="9" refX="0" id="ONLY_ONE_START"><path d="M9,0 L9,18 M15,0 L15,18" fill="none" stroke="gray"/></marker></defs><defs><marker orient="auto" markerHeight="18" markerWidth="18" refY="9" refX="18" id="ONLY_ONE_END"><path d="M3,0 L3,18 M9,0 L9,18" fill="none" stroke="gray"/></marker></defs><defs><marker orient="auto" markerHeight="18" markerWidth="30" refY="9" refX="0" id="ZERO_OR_ONE_START"><circle r="6" cy="9" cx="21" fill="white" stroke="gray"/><path d="M9,0 L9,18" fill="none" stroke="gray"/></marker></defs><defs><marker orient="auto" markerHeight="18" markerWidth="30" refY="9" refX="30" id="ZERO_OR_ONE_END"><circle r="6" cy="9" cx="9" fill="white" stroke="gray"/><path d="M21,0 L21,18" fill="none" stroke="gray"/></marker></defs><defs><marker orient="auto" markerHeight="36" markerWidth="45" refY="18" refX="18" id="ONE_OR_MORE_START"><path d="M0,18 Q 18,0 36,18 Q 18,36 0,18 M42,9 L42,27" fill="none" stroke="gray"/></marker></defs><defs><marker orient="auto" markerHeight="36" markerWidth="45" refY="18" refX="27" id="ONE_OR_MORE_END"><path d="M3,9 L3,27 M9,18 Q27,0 45,18 Q27,36 9,18" fill="none" stroke="gray"/></marker></defs><defs><marker orient="auto" markerHeight="36" markerWidth="57" refY="18" refX="18" id="ZERO_OR_MORE_START"><circle r="6" cy="18" cx="48" fill="white" stroke="gray"/><path d="M0,18 Q18,0 36,18 Q18,36 0,18" fill="none" stroke="gray"/></marker></defs><defs><marker orient="auto" markerHeight="36" markerWidth="57" refY="18" refX="39" id="ZERO_OR_MORE_END"><circle r="6" cy="18" cx="9" fill="white" stroke="gray"/><path d="M21,18 Q39,0 57,18 Q39,36 21,18" fill="none" stroke="gray"/></marker></defs><path style="stroke: gray; fill: none;" marker-start="url(#ONLY_ONE_START)" marker-end="url(#ZERO_OR_MORE_END)" d="M594.794,397.2L663.395,412.167C731.997,427.134,869.2,457.067,942.549,480.367C1015.899,503.667,1025.395,520.333,1030.143,528.667L1034.891,537" class="er relationshipLine"/><path style="stroke: gray; fill: none;" marker-start="url(#ONLY_ONE_START)" marker-end="url(#ZERO_OR_ONE_END)" d="M307.397,437L307.397,445.333C307.397,453.667,307.397,470.333,348.588,493.245C389.779,516.157,472.161,545.313,513.353,559.892L554.544,574.47" class="er relationshipLine"/><path style="stroke: gray; fill: none;" marker-start="url(#ONLY_ONE_START)" marker-end="url(#ONLY_ONE_END)" d="M766.348,88.643L689.856,104.202C613.364,119.762,460.381,150.881,383.889,174.774C307.397,198.667,307.397,215.333,307.397,223.667L307.397,232" class="er relationshipLine"/><path style="stroke: gray; fill: none;" marker-start="url(#ONLY_ONE_START)" marker-end="url(#ZERO_OR_MORE_END)" d="M869.657,132L875.781,140.333C881.905,148.667,894.154,165.333,900.278,199.083C906.403,232.833,906.403,283.667,906.403,334.5C906.403,385.333,906.403,436.167,865.212,476.162C824.021,516.157,741.638,545.313,700.447,559.892L659.256,574.47" class="er relationshipLine"/><path style="stroke: gray; fill: none;" marker-start="url(#ONLY_ONE_START)" marker-end="url(#ZERO_OR_MORE_END)" d="M890.653,98.852L928.344,112.71C966.035,126.568,1041.416,154.284,1079.107,193.559C1116.798,232.833,1116.798,283.667,1116.798,334.5C1116.798,385.333,1116.798,436.167,1112.867,469.917C1108.936,503.667,1101.075,520.333,1097.144,528.667L1093.213,537" class="er relationshipLine"/><path style="stroke: gray; fill: none;" marker-start="url(#ONLY_ONE_START)" marker-end="url(#ZERO_OR_MORE_END)" d="M787.345,132L781.22,140.333C775.096,148.667,762.847,165.333,756.723,192.833C750.598,220.333,750.598,258.667,750.598,277.833L750.598,297" class="er relationshipLine"/><path style="stroke: gray; fill: none;" marker-start="url(#ONLY_ONE_START)" marker-end="url(#ONE_OR_MORE_END)" d="M606.9,649L606.9,657.333C606.9,665.667,606.9,682.333,606.9,699C606.9,715.667,606.9,732.333,606.9,740.667L606.9,749" class="er relationshipLine"/><g transform="translate(20,232 )" id="entity-User-818c511a-4a32-5484-ba70-875d765a9175"><rect height="205" width="574.7935180664062" y="0" x="0" class="er entityBox"/><text style="dominant-baseline: middle; text-anchor: middle; font-size: 12px;" transform="translate(287.3967590332031,12)" y="0" x="0" id="text-entity-User-818c511a-4a32-5484-ba70-875d765a9175" class="er entityLabel">User</text><rect height="22" width="60.25164794921875" y="24" x="0" class="er attributeBoxOdd"/><text style="dominant-baseline: middle; font-size: 10.2px;" transform="translate(5,35)" y="0" x="0" id="text-entity-User-818c511a-4a32-5484-ba70-875d765a9175-attr-1-type" class="er entityLabel">INT</text><rect height="22" width="65.015625" y="24" x="60.25164794921875" class="er attributeBoxOdd"/><text style="dominant-baseline: middle; font-size: 10.2px;" transform="translate(65.25164794921875,35)" y="0" x="0" id="text-entity-User-818c511a-4a32-5484-ba70-875d765a9175-attr-1-name" class="er entityLabel">ID</text><rect height="22" width="22.60595703125" y="24" x="125.26727294921875" class="er attributeBoxOdd"/><text style="dominant-baseline: middle; font-size: 10.2px;" transform="translate(130.26727294921875,35)" y="0" x="0" id="text-entity-User-818c511a-4a32-5484-ba70-875d765a9175-attr-1-key" class="er entityLabel">PK</text><rect height="22" width="426.9202880859375" y="24" x="147.87322998046875" class="er attributeBoxOdd"/><text style="dominant-baseline: middle; font-size: 10.2px;" transform="translate(152.87322998046875,35)" y="0" x="0" id="text-entity-User-818c511a-4a32-5484-ba70-875d765a9175-attr-1-comment" class="er entityLabel"/><rect height="23" width="60.25164794921875" y="46" x="0" class="er attributeBoxEven"/><text style="dominant-baseline: middle; font-size: 10.2px;" transform="translate(5,57.5)" y="0" x="0" id="text-entity-User-818c511a-4a32-5484-ba70-875d765a9175-attr-2-type" class="er entityLabel">String(50)</text><rect height="23" width="65.015625" y="46" x="60.25164794921875" class="er attributeBoxEven"/><text style="dominant-baseline: middle; font-size: 10.2px;" transform="translate(65.25164794921875,57.5)" y="0" x="0" id="text-entity-User-818c511a-4a32-5484-ba70-875d765a9175-attr-2-name" class="er entityLabel">name</text><rect height="23" width="22.60595703125" y="46" x="125.26727294921875" class="er attributeBoxEven"/><text style="dominant-baseline: middle; font-size: 10.2px;" transform="translate(130.26727294921875,57.5)" y="0" x="0" id="text-entity-User-818c511a-4a32-5484-ba70-875d765a9175-attr-2-key" class="er entityLabel"/><rect height="23" width="426.9202880859375" y="46" x="147.87322998046875" class="er attributeBoxEven"/><text style="dominant-baseline: middle; font-size: 10.2px;" transform="translate(152.87322998046875,57.5)" y="0" x="0" id="text-entity-User-818c511a-4a32-5484-ba70-875d765a9175-attr-2-comment" class="er entityLabel"/><rect height="23" width="60.25164794921875" y="69" x="0" class="er attributeBoxOdd"/><text style="dominant-baseline: middle; font-size: 10.2px;" transform="translate(5,80.5)" y="0" x="0" id="text-entity-User-818c511a-4a32-5484-ba70-875d765a9175-attr-3-type" class="er entityLabel">String(50)</text><rect height="23" width="65.015625" y="69" x="60.25164794921875" class="er attributeBoxOdd"/><text style="dominant-baseline: middle; font-size: 10.2px;" transform="translate(65.25164794921875,80.5)" y="0" x="0" id="text-entity-User-818c511a-4a32-5484-ba70-875d765a9175-attr-3-name" class="er entityLabel">surname</text><rect height="23" width="22.60595703125" y="69" x="125.26727294921875" class="er attributeBoxOdd"/><text style="dominant-baseline: middle; font-size: 10.2px;" transform="translate(130.26727294921875,80.5)" y="0" x="0" id="text-entity-User-818c511a-4a32-5484-ba70-875d765a9175-attr-3-key" class="er entityLabel"/><rect height="23" width="426.9202880859375" y="69" x="147.87322998046875" class="er attributeBoxOdd"/><text style="dominant-baseline: middle; font-size: 10.2px;" transform="translate(152.87322998046875,80.5)" y="0" x="0" id="text-entity-User-818c511a-4a32-5484-ba70-875d765a9175-attr-3-comment" class="er entityLabel"/><rect height="23" width="60.25164794921875" y="92" x="0" class="er attributeBoxEven"/><text style="dominant-baseline: middle; font-size: 10.2px;" transform="translate(5,103.5)" y="0" x="0" id="text-entity-User-818c511a-4a32-5484-ba70-875d765a9175-attr-4-type" class="er entityLabel">String(50)</text><rect height="23" width="65.015625" y="92" x="60.25164794921875" class="er attributeBoxEven"/><text style="dominant-baseline: middle; font-size: 10.2px;" transform="translate(65.25164794921875,103.5)" y="0" x="0" id="text-entity-User-818c511a-4a32-5484-ba70-875d765a9175-attr-4-name" class="er entityLabel">lastname</text><rect height="23" width="22.60595703125" y="92" x="125.26727294921875" class="er attributeBoxEven"/><text style="dominant-baseline: middle; font-size: 10.2px;" transform="translate(130.26727294921875,103.5)" y="0" x="0" id="text-entity-User-818c511a-4a32-5484-ba70-875d765a9175-attr-4-key" class="er entityLabel"/><rect height="23" width="426.9202880859375" y="92" x="147.87322998046875" class="er attributeBoxEven"/><text style="dominant-baseline: middle; font-size: 10.2px;" transform="translate(152.87322998046875,103.5)" y="0" x="0" id="text-entity-User-818c511a-4a32-5484-ba70-875d765a9175-attr-4-comment" class="er entityLabel"/><rect height="23" width="60.25164794921875" y="115" x="0" class="er attributeBoxOdd"/><text style="dominant-baseline: middle; font-size: 10.2px;" transform="translate(5,126.5)" y="0" x="0" id="text-entity-User-818c511a-4a32-5484-ba70-875d765a9175-attr-5-type" class="er entityLabel">String(128)</text><rect height="23" width="65.015625" y="115" x="60.25164794921875" class="er attributeBoxOdd"/><text style="dominant-baseline: middle; font-size: 10.2px;" transform="translate(65.25164794921875,126.5)" y="0" x="0" id="text-entity-User-818c511a-4a32-5484-ba70-875d765a9175-attr-5-name" class="er entityLabel">email</text><rect height="23" width="22.60595703125" y="115" x="125.26727294921875" class="er attributeBoxOdd"/><text style="dominant-baseline: middle; font-size: 10.2px;" transform="translate(130.26727294921875,126.5)" y="0" x="0" id="text-entity-User-818c511a-4a32-5484-ba70-875d765a9175-attr-5-key" class="er entityLabel"/><rect height="23" width="426.9202880859375" y="115" x="147.87322998046875" class="er attributeBoxOdd"/><text style="dominant-baseline: middle; font-size: 10.2px;" transform="translate(152.87322998046875,126.5)" y="0" x="0" id="text-entity-User-818c511a-4a32-5484-ba70-875d765a9175-attr-5-comment" class="er entityLabel"/><rect height="23" width="60.25164794921875" y="138" x="0" class="er attributeBoxEven"/><text style="dominant-baseline: middle; font-size: 10.2px;" transform="translate(5,149.5)" y="0" x="0" id="text-entity-User-818c511a-4a32-5484-ba70-875d765a9175-attr-6-type" class="er entityLabel">String(255)</text><rect height="23" width="65.015625" y="138" x="60.25164794921875" class="er attributeBoxEven"/><text style="dominant-baseline: middle; font-size: 10.2px;" transform="translate(65.25164794921875,149.5)" y="0" x="0" id="text-entity-User-818c511a-4a32-5484-ba70-875d765a9175-attr-6-name" class="er entityLabel">passwd</text><rect height="23" width="22.60595703125" y="138" x="125.26727294921875" class="er attributeBoxEven"/><text style="dominant-baseline: middle; font-size: 10.2px;" transform="translate(130.26727294921875,149.5)" y="0" x="0" id="text-entity-User-818c511a-4a32-5484-ba70-875d765a9175-attr-6-key" class="er entityLabel">UK</text><rect height="23" width="426.9202880859375" y="138" x="147.87322998046875" class="er attributeBoxEven"/><text style="dominant-baseline: middle; font-size: 10.2px;" transform="translate(152.87322998046875,149.5)" y="0" x="0" id="text-entity-User-818c511a-4a32-5484-ba70-875d765a9175-attr-6-comment" class="er entityLabel">Must contain at least 8
                          chars, a number, a
                          symbol, one uppercase
                          and one lowercase letter</text><rect height="22" width="60.25164794921875" y="161" x="0" class="er attributeBoxOdd"/><text style="dominant-baseline: middle; font-size: 10.2px;" transform="translate(5,172)" y="0" x="0" id="text-entity-User-818c511a-4a32-5484-ba70-875d765a9175-attr-7-type" class="er entityLabel">bool</text><rect height="22" width="65.015625" y="161" x="60.25164794921875" class="er attributeBoxOdd"/><text style="dominant-baseline: middle; font-size: 10.2px;" transform="translate(65.25164794921875,172)" y="0" x="0" id="text-entity-User-818c511a-4a32-5484-ba70-875d765a9175-attr-7-name" class="er entityLabel">active</text><rect height="22" width="22.60595703125" y="161" x="125.26727294921875" class="er attributeBoxOdd"/><text style="dominant-baseline: middle; font-size: 10.2px;" transform="translate(130.26727294921875,172)" y="0" x="0" id="text-entity-User-818c511a-4a32-5484-ba70-875d765a9175-attr-7-key" class="er entityLabel"/><rect height="22" width="426.9202880859375" y="161" x="147.87322998046875" class="er attributeBoxOdd"/><text style="dominant-baseline: middle; font-size: 10.2px;" transform="translate(152.87322998046875,172)" y="0" x="0" id="text-entity-User-818c511a-4a32-5484-ba70-875d765a9175-attr-7-comment" class="er entityLabel"/><rect height="22" width="60.25164794921875" y="183" x="0" class="er attributeBoxEven"/><text style="dominant-baseline: middle; font-size: 10.2px;" transform="translate(5,194)" y="0" x="0" id="text-entity-User-818c511a-4a32-5484-ba70-875d765a9175-attr-8-type" class="er entityLabel">INT</text><rect height="22" width="65.015625" y="183" x="60.25164794921875" class="er attributeBoxEven"/><text style="dominant-baseline: middle; font-size: 10.2px;" transform="translate(65.25164794921875,194)" y="0" x="0" id="text-entity-User-818c511a-4a32-5484-ba70-875d765a9175-attr-8-name" class="er entityLabel">premium_ID</text><rect height="22" width="22.60595703125" y="183" x="125.26727294921875" class="er attributeBoxEven"/><text style="dominant-baseline: middle; font-size: 10.2px;" transform="translate(130.26727294921875,194)" y="0" x="0" id="text-entity-User-818c511a-4a32-5484-ba70-875d765a9175-attr-8-key" class="er entityLabel">FK</text><rect height="22" width="426.9202880859375" y="183" x="147.87322998046875" class="er attributeBoxEven"/><text style="dominant-baseline: middle; font-size: 10.2px;" transform="translate(152.87322998046875,194)" y="0" x="0" id="text-entity-User-818c511a-4a32-5484-ba70-875d765a9175-attr-8-comment" class="er entityLabel"/></g><g transform="translate(766.3482971191406,20 )" id="entity-Premium-d5c3b57c-ed0f-5b93-aa19-880d6377a259"><rect height="112" width="124.30450439453125" y="0" x="0" class="er entityBox"/><text style="dominant-baseline: middle; text-anchor: middle; font-size: 12px;" transform="translate(62.152252197265625,12)" y="0" x="0" id="text-entity-Premium-d5c3b57c-ed0f-5b93-aa19-880d6377a259" class="er entityLabel">Premium</text><rect height="22" width="31.639404296875" y="24" x="0" class="er attributeBoxOdd"/><text style="dominant-baseline: middle; font-size: 10.2px;" transform="translate(5,35)" y="0" x="0" id="text-entity-Premium-d5c3b57c-ed0f-5b93-aa19-880d6377a259-attr-1-type" class="er entityLabel">INT</text><rect height="22" width="70.984375" y="24" x="31.639404296875" class="er attributeBoxOdd"/><text style="dominant-baseline: middle; font-size: 10.2px;" transform="translate(36.639404296875,35)" y="0" x="0" id="text-entity-Premium-d5c3b57c-ed0f-5b93-aa19-880d6377a259-attr-1-name" class="er entityLabel">ID</text><rect height="22" width="21.68072509765625" y="24" x="102.623779296875" class="er attributeBoxOdd"/><text style="dominant-baseline: middle; font-size: 10.2px;" transform="translate(107.623779296875,35)" y="0" x="0" id="text-entity-Premium-d5c3b57c-ed0f-5b93-aa19-880d6377a259-attr-1-key" class="er entityLabel">PK</text><rect height="22" width="31.639404296875" y="46" x="0" class="er attributeBoxEven"/><text style="dominant-baseline: middle; font-size: 10.2px;" transform="translate(5,57)" y="0" x="0" id="text-entity-Premium-d5c3b57c-ed0f-5b93-aa19-880d6377a259-attr-2-type" class="er entityLabel">bool</text><rect height="22" width="70.984375" y="46" x="31.639404296875" class="er attributeBoxEven"/><text style="dominant-baseline: middle; font-size: 10.2px;" transform="translate(36.639404296875,57)" y="0" x="0" id="text-entity-Premium-d5c3b57c-ed0f-5b93-aa19-880d6377a259-attr-2-name" class="er entityLabel">premium</text><rect height="22" width="21.68072509765625" y="46" x="102.623779296875" class="er attributeBoxEven"/><text style="dominant-baseline: middle; font-size: 10.2px;" transform="translate(107.623779296875,57)" y="0" x="0" id="text-entity-Premium-d5c3b57c-ed0f-5b93-aa19-880d6377a259-attr-2-key" class="er entityLabel"/><rect height="22" width="31.639404296875" y="68" x="0" class="er attributeBoxOdd"/><text style="dominant-baseline: middle; font-size: 10.2px;" transform="translate(5,79)" y="0" x="0" id="text-entity-Premium-d5c3b57c-ed0f-5b93-aa19-880d6377a259-attr-3-type" class="er entityLabel">Date</text><rect height="22" width="70.984375" y="68" x="31.639404296875" class="er attributeBoxOdd"/><text style="dominant-baseline: middle; font-size: 10.2px;" transform="translate(36.639404296875,79)" y="0" x="0" id="text-entity-Premium-d5c3b57c-ed0f-5b93-aa19-880d6377a259-attr-3-name" class="er entityLabel">suscriptions[]</text><rect height="22" width="21.68072509765625" y="68" x="102.623779296875" class="er attributeBoxOdd"/><text style="dominant-baseline: middle; font-size: 10.2px;" transform="translate(107.623779296875,79)" y="0" x="0" id="text-entity-Premium-d5c3b57c-ed0f-5b93-aa19-880d6377a259-attr-3-key" class="er entityLabel"/><rect height="22" width="31.639404296875" y="90" x="0" class="er attributeBoxEven"/><text style="dominant-baseline: middle; font-size: 10.2px;" transform="translate(5,101)" y="0" x="0" id="text-entity-Premium-d5c3b57c-ed0f-5b93-aa19-880d6377a259-attr-4-type" class="er entityLabel">Date</text><rect height="22" width="70.984375" y="90" x="31.639404296875" class="er attributeBoxEven"/><text style="dominant-baseline: middle; font-size: 10.2px;" transform="translate(36.639404296875,101)" y="0" x="0" id="text-entity-Premium-d5c3b57c-ed0f-5b93-aa19-880d6377a259-attr-4-name" class="er entityLabel">due</text><rect height="22" width="21.68072509765625" y="90" x="102.623779296875" class="er attributeBoxEven"/><text style="dominant-baseline: middle; font-size: 10.2px;" transform="translate(107.623779296875,101)" y="0" x="0" id="text-entity-Premium-d5c3b57c-ed0f-5b93-aa19-880d6377a259-attr-4-key" class="er entityLabel"/></g><g transform="translate(554.5438385009766,537 )" id="entity-Log-472337e0-2137-5e38-bbc7-43e8b58c0118"><rect height="112" width="104.71197509765625" y="0" x="0" class="er entityBox"/><text style="dominant-baseline: middle; text-anchor: middle; font-size: 12px;" transform="translate(52.355987548828125,12)" y="0" x="0" id="text-entity-Log-472337e0-2137-5e38-bbc7-43e8b58c0118" class="er entityLabel">Log</text><rect height="22" width="32.734375" y="24" x="0" class="er attributeBoxOdd"/><text style="dominant-baseline: middle; font-size: 10.2px;" transform="translate(5,35)" y="0" x="0" id="text-entity-Log-472337e0-2137-5e38-bbc7-43e8b58c0118-attr-1-type" class="er entityLabel">INT</text><rect height="22" width="50.296875" y="24" x="32.734375" class="er attributeBoxOdd"/><text style="dominant-baseline: middle; font-size: 10.2px;" transform="translate(37.734375,35)" y="0" x="0" id="text-entity-Log-472337e0-2137-5e38-bbc7-43e8b58c0118-attr-1-name" class="er entityLabel">ID</text><rect height="22" width="21.68072509765625" y="24" x="83.03125" class="er attributeBoxOdd"/><text style="dominant-baseline: middle; font-size: 10.2px;" transform="translate(88.03125,35)" y="0" x="0" id="text-entity-Log-472337e0-2137-5e38-bbc7-43e8b58c0118-attr-1-key" class="er entityLabel">PK</text><rect height="22" width="32.734375" y="46" x="0" class="er attributeBoxEven"/><text style="dominant-baseline: middle; font-size: 10.2px;" transform="translate(5,57)" y="0" x="0" id="text-entity-Log-472337e0-2137-5e38-bbc7-43e8b58c0118-attr-2-type" class="er entityLabel">INT</text><rect height="22" width="50.296875" y="46" x="32.734375" class="er attributeBoxEven"/><text style="dominant-baseline: middle; font-size: 10.2px;" transform="translate(37.734375,57)" y="0" x="0" id="text-entity-Log-472337e0-2137-5e38-bbc7-43e8b58c0118-attr-2-name" class="er entityLabel">user_ID</text><rect height="22" width="21.68072509765625" y="46" x="83.03125" class="er attributeBoxEven"/><text style="dominant-baseline: middle; font-size: 10.2px;" transform="translate(88.03125,57)" y="0" x="0" id="text-entity-Log-472337e0-2137-5e38-bbc7-43e8b58c0118-attr-2-key" class="er entityLabel">FK</text><rect height="22" width="32.734375" y="68" x="0" class="er attributeBoxOdd"/><text style="dominant-baseline: middle; font-size: 10.2px;" transform="translate(5,79)" y="0" x="0" id="text-entity-Log-472337e0-2137-5e38-bbc7-43e8b58c0118-attr-3-type" class="er entityLabel">INT</text><rect height="22" width="50.296875" y="68" x="32.734375" class="er attributeBoxOdd"/><text style="dominant-baseline: middle; font-size: 10.2px;" transform="translate(37.734375,79)" y="0" x="0" id="text-entity-Log-472337e0-2137-5e38-bbc7-43e8b58c0118-attr-3-name" class="er entityLabel">car_ID</text><rect height="22" width="21.68072509765625" y="68" x="83.03125" class="er attributeBoxOdd"/><text style="dominant-baseline: middle; font-size: 10.2px;" transform="translate(88.03125,79)" y="0" x="0" id="text-entity-Log-472337e0-2137-5e38-bbc7-43e8b58c0118-attr-3-key" class="er entityLabel">FK</text><rect height="22" width="32.734375" y="90" x="0" class="er attributeBoxEven"/><text style="dominant-baseline: middle; font-size: 10.2px;" transform="translate(5,101)" y="0" x="0" id="text-entity-Log-472337e0-2137-5e38-bbc7-43e8b58c0118-attr-4-type" class="er entityLabel">INT[]</text><rect height="22" width="50.296875" y="90" x="32.734375" class="er attributeBoxEven"/><text style="dominant-baseline: middle; font-size: 10.2px;" transform="translate(37.734375,101)" y="0" x="0" id="text-entity-Log-472337e0-2137-5e38-bbc7-43e8b58c0118-attr-4-name" class="er entityLabel">codes_ID</text><rect height="22" width="21.68072509765625" y="90" x="83.03125" class="er attributeBoxEven"/><text style="dominant-baseline: middle; font-size: 10.2px;" transform="translate(88.03125,101)" y="0" x="0" id="text-entity-Log-472337e0-2137-5e38-bbc7-43e8b58c0118-attr-4-key" class="er entityLabel">FK</text></g><g transform="translate(998.3638305664062,537 )" id="entity-Car-ba07cc06-e292-5c3f-b020-9c22cc6eb631"><rect height="112" width="136.86822509765625" y="0" x="0" class="er entityBox"/><text style="dominant-baseline: middle; text-anchor: middle; font-size: 12px;" transform="translate(68.43411254882812,12)" y="0" x="0" id="text-entity-Car-ba07cc06-e292-5c3f-b020-9c22cc6eb631" class="er entityLabel">Car</text><rect height="22" width="36.484375" y="24" x="0" class="er attributeBoxOdd"/><text style="dominant-baseline: middle; font-size: 10.2px;" transform="translate(5,35)" y="0" x="0" id="text-entity-Car-ba07cc06-e292-5c3f-b020-9c22cc6eb631-attr-1-type" class="er entityLabel">INT</text><rect height="22" width="78.703125" y="24" x="36.484375" class="er attributeBoxOdd"/><text style="dominant-baseline: middle; font-size: 10.2px;" transform="translate(41.484375,35)" y="0" x="0" id="text-entity-Car-ba07cc06-e292-5c3f-b020-9c22cc6eb631-attr-1-name" class="er entityLabel">ID</text><rect height="22" width="21.68072509765625" y="24" x="115.1875" class="er attributeBoxOdd"/><text style="dominant-baseline: middle; font-size: 10.2px;" transform="translate(120.1875,35)" y="0" x="0" id="text-entity-Car-ba07cc06-e292-5c3f-b020-9c22cc6eb631-attr-1-key" class="er entityLabel">PK</text><rect height="22" width="36.484375" y="46" x="0" class="er attributeBoxEven"/><text style="dominant-baseline: middle; font-size: 10.2px;" transform="translate(5,57)" y="0" x="0" id="text-entity-Car-ba07cc06-e292-5c3f-b020-9c22cc6eb631-attr-2-type" class="er entityLabel">String</text><rect height="22" width="78.703125" y="46" x="36.484375" class="er attributeBoxEven"/><text style="dominant-baseline: middle; font-size: 10.2px;" transform="translate(41.484375,57)" y="0" x="0" id="text-entity-Car-ba07cc06-e292-5c3f-b020-9c22cc6eb631-attr-2-name" class="er entityLabel">model</text><rect height="22" width="21.68072509765625" y="46" x="115.1875" class="er attributeBoxEven"/><text style="dominant-baseline: middle; font-size: 10.2px;" transform="translate(120.1875,57)" y="0" x="0" id="text-entity-Car-ba07cc06-e292-5c3f-b020-9c22cc6eb631-attr-2-key" class="er entityLabel"/><rect height="22" width="36.484375" y="68" x="0" class="er attributeBoxOdd"/><text style="dominant-baseline: middle; font-size: 10.2px;" transform="translate(5,79)" y="0" x="0" id="text-entity-Car-ba07cc06-e292-5c3f-b020-9c22cc6eb631-attr-3-type" class="er entityLabel">String</text><rect height="22" width="78.703125" y="68" x="36.484375" class="er attributeBoxOdd"/><text style="dominant-baseline: middle; font-size: 10.2px;" transform="translate(41.484375,79)" y="0" x="0" id="text-entity-Car-ba07cc06-e292-5c3f-b020-9c22cc6eb631-attr-3-name" class="er entityLabel">year</text><rect height="22" width="21.68072509765625" y="68" x="115.1875" class="er attributeBoxOdd"/><text style="dominant-baseline: middle; font-size: 10.2px;" transform="translate(120.1875,79)" y="0" x="0" id="text-entity-Car-ba07cc06-e292-5c3f-b020-9c22cc6eb631-attr-3-key" class="er entityLabel"/><rect height="22" width="36.484375" y="90" x="0" class="er attributeBoxEven"/><text style="dominant-baseline: middle; font-size: 10.2px;" transform="translate(5,101)" y="0" x="0" id="text-entity-Car-ba07cc06-e292-5c3f-b020-9c22cc6eb631-attr-4-type" class="er entityLabel">String</text><rect height="22" width="78.703125" y="90" x="36.484375" class="er attributeBoxEven"/><text style="dominant-baseline: middle; font-size: 10.2px;" transform="translate(41.484375,101)" y="0" x="0" id="text-entity-Car-ba07cc06-e292-5c3f-b020-9c22cc6eb631-attr-4-name" class="er entityLabel">documentation</text><rect height="22" width="21.68072509765625" y="90" x="115.1875" class="er attributeBoxEven"/><text style="dominant-baseline: middle; font-size: 10.2px;" transform="translate(120.1875,101)" y="0" x="0" id="text-entity-Car-ba07cc06-e292-5c3f-b020-9c22cc6eb631-attr-4-key" class="er entityLabel"/></g><g transform="translate(543.6141510009766,749 )" id="entity-ObdCode-fc6a0b5a-2840-58a0-a1dd-424f8a75c9ed"><rect height="134" width="126.57135009765625" y="0" x="0" class="er entityBox"/><text style="dominant-baseline: middle; text-anchor: middle; font-size: 12px;" transform="translate(63.285675048828125,12)" y="0" x="0" id="text-entity-ObdCode-fc6a0b5a-2840-58a0-a1dd-424f8a75c9ed" class="er entityLabel">ObdCode</text><rect height="22" width="43.96875" y="24" x="0" class="er attributeBoxOdd"/><text style="dominant-baseline: middle; font-size: 10.2px;" transform="translate(5,35)" y="0" x="0" id="text-entity-ObdCode-fc6a0b5a-2840-58a0-a1dd-424f8a75c9ed-attr-1-type" class="er entityLabel">INT</text><rect height="22" width="60.921875" y="24" x="43.96875" class="er attributeBoxOdd"/><text style="dominant-baseline: middle; font-size: 10.2px;" transform="translate(48.96875,35)" y="0" x="0" id="text-entity-ObdCode-fc6a0b5a-2840-58a0-a1dd-424f8a75c9ed-attr-1-name" class="er entityLabel">ID</text><rect height="22" width="21.68072509765625" y="24" x="104.890625" class="er attributeBoxOdd"/><text style="dominant-baseline: middle; font-size: 10.2px;" transform="translate(109.890625,35)" y="0" x="0" id="text-entity-ObdCode-fc6a0b5a-2840-58a0-a1dd-424f8a75c9ed-attr-1-key" class="er entityLabel">PK</text><rect height="22" width="43.96875" y="46" x="0" class="er attributeBoxEven"/><text style="dominant-baseline: middle; font-size: 10.2px;" transform="translate(5,57)" y="0" x="0" id="text-entity-ObdCode-fc6a0b5a-2840-58a0-a1dd-424f8a75c9ed-attr-2-type" class="er entityLabel">String</text><rect height="22" width="60.921875" y="46" x="43.96875" class="er attributeBoxEven"/><text style="dominant-baseline: middle; font-size: 10.2px;" transform="translate(48.96875,57)" y="0" x="0" id="text-entity-ObdCode-fc6a0b5a-2840-58a0-a1dd-424f8a75c9ed-attr-2-name" class="er entityLabel">category</text><rect height="22" width="21.68072509765625" y="46" x="104.890625" class="er attributeBoxEven"/><text style="dominant-baseline: middle; font-size: 10.2px;" transform="translate(109.890625,57)" y="0" x="0" id="text-entity-ObdCode-fc6a0b5a-2840-58a0-a1dd-424f8a75c9ed-attr-2-key" class="er entityLabel"/><rect height="22" width="43.96875" y="68" x="0" class="er attributeBoxOdd"/><text style="dominant-baseline: middle; font-size: 10.2px;" transform="translate(5,79)" y="0" x="0" id="text-entity-ObdCode-fc6a0b5a-2840-58a0-a1dd-424f8a75c9ed-attr-3-type" class="er entityLabel">String</text><rect height="22" width="60.921875" y="68" x="43.96875" class="er attributeBoxOdd"/><text style="dominant-baseline: middle; font-size: 10.2px;" transform="translate(48.96875,79)" y="0" x="0" id="text-entity-ObdCode-fc6a0b5a-2840-58a0-a1dd-424f8a75c9ed-attr-3-name" class="er entityLabel">code</text><rect height="22" width="21.68072509765625" y="68" x="104.890625" class="er attributeBoxOdd"/><text style="dominant-baseline: middle; font-size: 10.2px;" transform="translate(109.890625,79)" y="0" x="0" id="text-entity-ObdCode-fc6a0b5a-2840-58a0-a1dd-424f8a75c9ed-attr-3-key" class="er entityLabel"/><rect height="22" width="43.96875" y="90" x="0" class="er attributeBoxEven"/><text style="dominant-baseline: middle; font-size: 10.2px;" transform="translate(5,101)" y="0" x="0" id="text-entity-ObdCode-fc6a0b5a-2840-58a0-a1dd-424f8a75c9ed-attr-4-type" class="er entityLabel">String</text><rect height="22" width="60.921875" y="90" x="43.96875" class="er attributeBoxEven"/><text style="dominant-baseline: middle; font-size: 10.2px;" transform="translate(48.96875,101)" y="0" x="0" id="text-entity-ObdCode-fc6a0b5a-2840-58a0-a1dd-424f8a75c9ed-attr-4-name" class="er entityLabel">description</text><rect height="22" width="21.68072509765625" y="90" x="104.890625" class="er attributeBoxEven"/><text style="dominant-baseline: middle; font-size: 10.2px;" transform="translate(109.890625,101)" y="0" x="0" id="text-entity-ObdCode-fc6a0b5a-2840-58a0-a1dd-424f8a75c9ed-attr-4-key" class="er entityLabel"/><rect height="22" width="43.96875" y="112" x="0" class="er attributeBoxOdd"/><text style="dominant-baseline: middle; font-size: 10.2px;" transform="translate(5,123)" y="0" x="0" id="text-entity-ObdCode-fc6a0b5a-2840-58a0-a1dd-424f8a75c9ed-attr-5-type" class="er entityLabel">String[]</text><rect height="22" width="60.921875" y="112" x="43.96875" class="er attributeBoxOdd"/><text style="dominant-baseline: middle; font-size: 10.2px;" transform="translate(48.96875,123)" y="0" x="0" id="text-entity-ObdCode-fc6a0b5a-2840-58a0-a1dd-424f8a75c9ed-attr-5-name" class="er entityLabel">fixes</text><rect height="22" width="21.68072509765625" y="112" x="104.890625" class="er attributeBoxOdd"/><text style="dominant-baseline: middle; font-size: 10.2px;" transform="translate(109.890625,123)" y="0" x="0" id="text-entity-ObdCode-fc6a0b5a-2840-58a0-a1dd-424f8a75c9ed-attr-5-key" class="er entityLabel"/></g><g transform="translate(694.7935180664062,297 )" id="entity-Documentation-e92d8f87-a581-5147-a415-d117c988e25d"><rect height="75" width="111.609375" y="0" x="0" class="er entityBox"/><text style="dominant-baseline: middle; text-anchor: middle; font-size: 12px;" transform="translate(55.8046875,37.5)" y="0" x="0" id="text-entity-Documentation-e92d8f87-a581-5147-a415-d117c988e25d" class="er entityLabel">Documentation</text></g><rect height="14" width="24.578125" y="441.5168151855469" x="811.448486328125" class="er relationshipLabelBox"/><text style="text-anchor: middle; dominant-baseline: middle; font-size: 12px;" y="448.5168151855469" x="823.737548828125" id="rel1" class="er relationshipLabel">Scan</text><rect height="14" width="47.693359375" y="516.5545654296875" x="391.5357971191406" class="er relationshipLabelBox"/><text style="text-anchor: middle; dominant-baseline: middle; font-size: 12px;" y="523.5545654296875" x="415.3824768066406" id="rel2" class="er relationshipLabel">Can save</text><rect height="14" width="18.125" y="132.33900451660156" x="514.4708862304688" class="er relationshipLabelBox"/><text style="text-anchor: middle; dominant-baseline: middle; font-size: 12px;" y="139.33900451660156" x="523.5333862304688" id="rel3" class="er relationshipLabel">Is a</text><rect height="14" width="47.693359375" y="412.7170715332031" x="874.8428344726562" class="er relationshipLabelBox"/><text style="text-anchor: middle; dominant-baseline: middle; font-size: 12px;" y="419.7170715332031" x="898.6895141601562" id="rel4" class="er relationshipLabel">Can save</text><rect height="14" width="47.21875" y="249.47598266601562" x="1087.8135986328125" class="er relationshipLabelBox"/><text style="text-anchor: middle; dominant-baseline: middle; font-size: 12px;" y="256.4759826660156" x="1111.4229736328125" id="rel5" class="er relationshipLabel">Full scan</text><rect height="14" width="58.244140625" y="203.47499084472656" x="724.6019287109375" class="er relationshipLabelBox"/><text style="text-anchor: middle; dominant-baseline: middle; font-size: 12px;" y="210.47499084472656" x="753.7239990234375" id="rel6" class="er relationshipLabel">Can access</text><rect height="14" width="47.693359375" y="692" x="583.0533447265625" class="er relationshipLabelBox"/><text style="text-anchor: middle; dominant-baseline: middle; font-size: 12px;" y="699" x="606.9000244140625" id="rel7" class="er relationshipLabel">Can save</text><text class="entityTitleText" y="-25" x="577.6160278320312" text-anchor="middle">Entity Relationship Diagram OBD</text></svg>